<svg height="200px" width="200px" version="1.1" id="Layer_1" xmlns="http://www.w3.org/2000/svg"
    xmlns:xlink="http://www.w3.org/1999/xlink" viewBox="-61.44 -61.44 634.88 634.88"
    xml:space="preserve" fill="#">
<g id="SVGRepo_bgCarrier" stroke-width="0" transform="translate(0,0), scale(1)">
    <rect x="-61.44" y="-61.44" width="634.88" height="634.88" rx="150" fill="#F7F8FF" strokewidth="0"></rect>
</g>
<g id="SVGRepo_iconCarrier">
    <path style="fill:#ca00c0;" d="M267.088,504.278c-17.219,0-34.269-4.433-49.308-12.819l-3.127-1.743 c-26.148-14.582-44.385-39.809-50.035-69.211l-56.23-292.606c-5.577-29.024,1.782-58.931,20.193-82.052 c19.294-24.228,48.128-38.125,79.112-38.125c14.817,0,29.155,3.176,42.618,9.44l86.966,40.463 c39.268,18.271,62.52,59.477,57.86,102.533l-27.474,253.884c-3.519,32.535-22.684,61.475-51.267,77.415 C301.357,499.845,284.307,504.278,267.088,504.278z M207.693,69.498c-12.06,0-23.28,5.405-30.785,14.83 c-7.161,8.992-10.023,20.624-7.854,31.912l56.23,292.606c2.197,11.435,9.29,21.246,19.46,26.918l3.125,1.743 c5.859,3.268,12.505,4.997,19.218,4.997c6.712,0,13.359-1.729,19.22-4.998c11.115-6.199,18.569-17.454,19.937-30.107l27.474-253.886 c1.813-16.746-7.23-32.772-22.502-39.877l-86.967-40.462C219.011,70.734,213.439,69.498,207.693,69.498z"></path>
    <path style="fill:#ca00c0;" d="M128.582,76.734c19.293-24.227,48.127-38.124,79.111-38.124c14.817,0,29.155,3.176,42.618,9.44 l86.966,40.463c31.275,14.552,52.372,43.658,57.319,76.655l0.543-5.01c4.659-43.058-18.593-84.262-57.86-102.533l-86.966-40.463 c-13.464-6.264-27.803-9.44-42.619-9.44c-30.984,0-59.818,13.896-79.111,38.124c-17.635,22.147-25.123,50.518-20.822,78.378 C110.419,107.05,117.492,90.66,128.582,76.734z"></path>
    <path style="fill:#B6BBDB;" d="M324.504,238.67l-14.935,138.017c-1.836,16.961,10.426,32.196,27.386,34.032l0,0 c16.96,1.835,32.196-10.426,34.031-27.386l14.943-138.081L324.504,238.67z"></path>
    <polygon style="fill:#C9CFF2;" points="392.664,278.161 405.433,160.159 323.424,153.513 310.778,270.369 "></polygon>
    <circle cx="340.424" cy="378.17" r="11.608"></circle>
 </g>
 <circle cx="256" cy="256" r="5.034" fill="#808080" stroke="#94008b" stroke-width="12"
    style="fill: rgb(128, 128, 128); stroke: rgb(148, 0, 139); stroke-width: 12px;"
    transform="matrix(1, 0, 0, 1, 0.5, 0.001)" />
  <circle cx="251.152" cy="238.67" r="0" fill="#808080" stroke="#94008b" stroke-width="12"
    style="fill: rgb(128, 128, 128); stroke: rgb(148, 0, 139); stroke-width: 12px;" />
  <circle cx="287.241" cy="142.798" r="0" fill="#808080" stroke="#94008b" stroke-width="12"
    style="fill: rgb(128, 128, 128); stroke: rgb(148, 0, 139); stroke-width: 12px;" />
  <circle cx="288.89" cy="144.671" r="0" fill="#808080" stroke="#94008b" stroke-width="12"
    style="fill: rgb(128, 128, 128); stroke: rgb(148, 0, 139); stroke-width: 12px;" />
  <path fill="none" stroke="#94008b" stroke-width="30" d="M 147.704 153.513 L 255.999 256"
    style="fill: none; stroke: rgb(148, 0, 139); stroke-width: 15px;" />
  <path fill="none" stroke="#94008b" stroke-width="30" d="M 255.999 476.841 V 256"
    style="fill: none; stroke: rgb(148, 0, 139); stroke-width: 15px;" />
</svg>